<svg width="64" height="64" viewBox="0 0 64 64" fill="none" xmlns="http://www.w3.org/2000/svg">
<path d="M52.2 25.5898C51.6696 25.5898 51.1609 25.8005 50.7858 26.1756C50.4107 26.5507 50.2 27.0594 50.2 27.5898V57.9998H6V13.7998H36.41C36.9404 13.7998 37.4491 13.5891 37.8242 13.214C38.1993 12.8389 38.41 12.3302 38.41 11.7998C38.41 11.2694 38.1993 10.7607 37.8242 10.3856C37.4491 10.0105 36.9404 9.7998 36.41 9.7998H4C3.46957 9.7998 2.96086 10.0105 2.58579 10.3856C2.21071 10.7607 2 11.2694 2 11.7998V59.9998C2 60.5302 2.21071 61.0389 2.58579 61.414C2.96086 61.7891 3.46957 61.9998 4 61.9998H52.2C52.7304 61.9998 53.2391 61.7891 53.6142 61.414C53.9893 61.0389 54.2 60.5302 54.2 59.9998V27.5898C54.2 27.0594 53.9893 26.5507 53.6142 26.1756C53.2391 25.8005 52.7304 25.5898 52.2 25.5898Z" fill="black" id="id_105"></path>
<path d="M52.1999 2C49.6025 2.00265 47.1124 3.03632 45.2767 4.87389C43.441 6.71146 42.4099 9.20261 42.4099 11.8C42.9499 24.8 61.4599 24.8 61.9999 11.8C61.9999 9.20088 60.9674 6.70821 59.1296 4.87035C57.2917 3.0325 54.799 2 52.1999 2V2Z" fill="black" id="id_106"></path>
</svg>