<svg version="1.1" id="Layer_1" xmlns="http://www.w3.org/2000/svg" xmlns:xlink="http://www.w3.org/1999/xlink" x="0px" y="0px" viewBox="0 0 243.5544 242.0547" enable-background="new 0 0 243.5544 242.0547" xml:space="preserve">
<g>
<path d="M101.4377,157.3008c-0.2579,0-0.5137-0.0108-0.7774-0.0235c-2.8164-0.165-5.4355-1.126-7.6123-2.7598v59.6084h145.9771
		v-71.4121h-13.9805v-3.1084h-12.0195V118.541h6.541v-10.666h-6.541V86.041h6.541V69.459l-18.209-5.7349V51.459h-4v11.0053
		l-5.666-1.7842V51.459h-4v7.9614L127.484,40.459v45.582h6.5411v21.834h-6.5411v10.666h6.5411v21.0644h-12.4805v3.1084h-6.0664
		c-0.0254,0.4698-0.0449,0.9307-0.0723,1.4034C114.9704,151.5058,108.8356,157.2968,101.4377,157.3008z M134.0251,197.291v-53.6856
		h10.666v53.6856H134.0251z M202.359,170.791v-27.1856h10.6661v27.1856H202.359z M202.359,139.6054h-26.6679V118.541h26.6679
		V139.6054z M202.359,107.875h-26.6679V86.041h26.6679V107.875z M144.6911,86.041h26.6679v21.834h-26.6679V86.041z
		 M144.6911,118.541h26.6679v21.0644h-26.6679V118.541z" id="id_120"></path>
<path d="M30.9543,151.9765v-20.6777l2,0.8418v97.5498c0,6.8311,5.5371,12.3643,12.3652,12.3643
		c5.2812,0,9.7783-3.3184,11.5488-7.9805c0.5186-1.3643,0.8145-2.8379,0.8145-4.3838v-90.2705h4.6357v90.2705
		c0,6.8311,5.5371,12.3643,12.3652,12.3643c6.8262,0,12.3643-5.5332,12.3643-12.3643V79.6884
		c3.4658,7.0997,6.9971,20.7032,6.9639,44.919c0,5.5156-0.1778,11.5723-0.5684,18.2226c-0.2598,4.4102,3.1055,8.1973,7.5176,8.4551
		c0.1601,0.0078,0.3184,0.0137,0.4746,0.0137c4.2051,0,7.73-3.2803,7.98-7.5332c0.4062-6.9336,0.5937-13.3008,0.5937-19.1582
		c-0.0117-22.6582-2.7695-37.6641-6.8764-48.0449c-4.0567-10.3379-9.8555-16.1739-15.2344-18.8418
		c-3.416-1.7207-6.4141-2.1094-8.2207-2.1319c-0.1192-0.0048-0.2383-0.0185-0.3594-0.0185H52.7599
		c0.0039,0.2187,0.0078,0.4761,0.0088,0.8066c-0.0156,3.9165-0.4482,15.5049-5.4082,28.7744l-5.5381-2.3325
		c4.5117-12.2251,4.959-22.9892,4.9453-26.4419c0-0.3603-0.0039-0.6206-0.0078-0.8066h-6.0771
		c-0.4785,0-0.9444,0.0498-1.3994,0.1328l0.0009,0.0093c-3.0869,0.3476-5.7666,1.5581-8.1093,3.1059
		c-2.7657,1.8477-5.1524,4.2598-7.2149,7.1094c-4.0879,5.6875-6.9238,13.2461-6.9394,21.8418
		c-0.0098,6.4355,1.6718,13.4102,5.5713,20.0996c3.8916,6.7002,9.9267,13.0733,18.375,18.7217
		c1.3662,0.915,2.913,1.3525,4.4423,1.3525c2.5801,0,5.1133-1.247,6.6563-3.5527c2.457-3.6719,1.4726-8.6406-2.2012-11.0977
		c-6.7773-4.541-10.9394-9.1679-13.4394-13.4648c-2.4913-4.3076-3.3946-8.3262-3.4043-12.0586
		c-0.0039-3.4854,0.8359-6.7363,2.1191-9.4277c1.2637-2.6875,3.0176-4.7784,4.3926-5.8379c0.4258-0.3408,0.79-0.5572,1.0674-0.6983
		l0.1845,2.2588c-1.0459,0.8047-2.6484,2.6094-3.834,5.128c-1.2675,2.6591-1.9326,5.6201-1.9306,8.5761
		c0.0058,1.9678,0.2881,3.8833,0.8437,5.7764l3.5694-8.4775l30.9873,13.0507l-16.6504,39.5332l-30.9844-13.0468l3.459-8.2178
		c-2.0654-2.4063-3.8701-4.9111-5.3828-7.5137c-3.832-6.5762-5.8516-13.8769-5.8399-21.1074
		c0.0127-8.2891,2.6114-16.4609,7.3125-23.0039c2.2725-3.1406,4.8711-5.6953,7.7295-7.6074
		c2.8467-1.8799,6.1338-3.0703,9.0557-3.4619l0.0019,0.017c0.5098-0.0825,1.0293-0.1372,1.5616-0.1372h14.6338
		c-5.2852-1.1279-14.3985-2.8554-20.2793-2.7734c-1.5186,0.0215-2.8262,0.1606-3.7901,0.4648c-6.333,2-24,14-30.5,49.5
		C-4.1405,127.456,15.9884,148.3515,30.9543,151.9765z" id="id_121"></path>
<circle cx="60.0002" cy="27.373" r="22.5" id="id_122"></circle>
<rect x="50.686" y="87.533" transform="matrix(0.3886 -0.9214 0.9214 0.3886 -59.4314 108.2399)" width="2.325" height="22.7431" id="id_123"></rect>
<rect x="48.8797" y="91.8192" transform="matrix(0.3873 -0.922 0.922 0.3873 -64.4766 109.3664)" width="2.3258" height="22.7449" id="id_124"></rect>
<path d="M225.4606,33.6787c1.8906,2.1841,4.6758,3.5713,7.791,3.5713c5.6895,0,10.3028-4.6104,10.3028-10.3018
		s-4.6133-10.3027-10.3028-10.3027c-0.0703,0-0.1367,0.0088-0.207,0.0102c0.0683,0.6475,0.1074,1.3037,0.1074,1.9693
		C233.152,24.8208,230.1149,30.2929,225.4606,33.6787z" id="id_125"></path>
<path d="M231.568,18.625c0-10.0166-7.9179-18.1665-17.834-18.585C213.4684,0.0288,213.2087,0,212.9411,0
		c-7.3008,0-13.6035,4.2129-16.6582,10.33c4.0918,0.1558,7.6816,2.2671,9.8437,5.441c-2.2441-2.1538-5.2832-3.4849-8.6367-3.4849
		c-5.8926,0-10.8184,4.0859-12.1309,9.5742c0.4942-0.1045,1.0039-0.1621,1.5293-0.1621c4.0489,0,7.3301,3.2813,7.3301,7.3301
		c0,0.251-0.0137,0.499-0.0371,0.7432c-0.373-3.6998-3.4961-6.587-7.293-6.587c-3.7988,0-6.9199,2.8872-7.2929,6.587
		c-0.0254,0.2446-0.0371,0.4921-0.0371,0.7431c0,4.0488,3.2812,7.332,7.33,7.332c1.918,0,3.6602-0.7436,4.9668-1.9506
		c1.6934,0.8593,3.6036,1.354,5.6348,1.354c2.5547,0,4.9277-0.7705,6.9063-2.0879c2.5605,1.3262,5.4609,2.0879,8.5449,2.0879
		c0.2676,0,0.5273-0.0288,0.7929-0.0401C223.6501,36.7915,231.568,28.6455,231.568,18.625z" id="id_126"></path>
<rect x="155.8224" y="97.0264" transform="matrix(0.6616 -0.7498 0.7498 0.6616 -18.5105 153.6207)" width="10.2607" height="0.5863" id="id_127"></rect>
<polygon points="160.4157,92.6093 159.9762,92.2226 153.1872,99.914 153.6266,100.3027 	" id="id_128"></polygon>
<rect x="148.2454" y="97.084" transform="matrix(0.6617 -0.7497 0.7497 0.6617 -19.4397 151.6682)" width="20.2273" height="0.5864" id="id_129"></rect>
<rect x="155.8224" y="130.0264" transform="matrix(0.6616 -0.7498 0.7498 0.6616 -43.2553 164.7873)" width="10.2607" height="0.5863" id="id_130"></rect>
<polygon points="160.4157,125.6093 159.9762,125.2226 153.1872,132.914 153.6266,133.3027 	" id="id_131"></polygon>
<rect x="148.2454" y="130.084" transform="matrix(0.6617 -0.7497 0.7497 0.6617 -44.1812 162.8311)" width="20.2273" height="0.5864" id="id_132"></rect>
<rect x="185.8224" y="97.0264" transform="matrix(0.6616 -0.7498 0.7498 0.6616 -8.359 176.1159)" width="10.2607" height="0.5863" id="id_133"></rect>
<polygon points="190.4157,92.6093 189.9762,92.2226 183.1872,99.914 183.6266,100.3027 	" id="id_134"></polygon>
<rect x="178.2454" y="97.084" transform="matrix(0.6617 -0.7498 0.7498 0.6617 -9.2891 174.1668)" width="20.2273" height="0.5864" id="id_135"></rect>
<rect x="185.8224" y="130.0264" transform="matrix(0.6616 -0.7498 0.7498 0.6616 -33.1038 187.2826)" width="10.2607" height="0.5863" id="id_136"></rect>
<polygon points="190.4157,125.6093 189.9762,125.2226 183.1872,132.914 183.6266,133.3027 	" id="id_137"></polygon>
<rect x="178.2454" y="130.084" transform="matrix(0.6617 -0.7498 0.7498 0.6617 -34.0313 185.3305)" width="20.2273" height="0.5864" id="id_138"></rect>
</g>
</svg>